<?xml version="1.0" standalone="no"?>
<!DOCTYPE svg PUBLIC "-//W3C//DTD SVG 20010904//EN"
 "http://www.w3.org/TR/2001/REC-SVG-20010904/DTD/svg10.dtd">
<svg version="1.0" xmlns="http://www.w3.org/2000/svg"
 width="954.000000pt" height="954.000000pt" viewBox="0 0 954.000000 954.000000"
 preserveAspectRatio="xMidYMid meet">
<metadata>
Created by potrace 1.14, written by Peter Selinger 2001-2017
</metadata>
<g transform="translate(0.000000,954.000000) scale(0.100000,-0.100000)"
fill="#000000" stroke="none">
<path d="M4240 7449 c-507 -25 -839 -55 -1200 -109 -69 -10 -145 -22 -170 -25
-77 -11 -309 -55 -430 -81 -240 -52 -274 -61 -560 -139 -128 -36 -371 -118
-500 -170 -63 -26 -128 -52 -145 -58 -16 -6 -113 -53 -215 -104 -387 -193
-651 -406 -793 -638 -305 -501 4 -1031 843 -1444 130 -64 353 -161 415 -180
17 -5 75 -26 130 -46 55 -20 124 -43 154 -51 29 -8 57 -17 61 -19 33 -20 525
-145 765 -194 469 -96 1054 -171 1580 -202 384 -23 1351 -12 1667 20 51 5 154
15 228 21 74 6 162 15 195 20 33 6 101 14 150 19 313 34 970 163 1245 245 25
8 79 24 120 36 1139 336 1799 880 1721 1417 -16 112 -49 204 -108 305 -212
358 -723 681 -1475 932 -327 109 -602 180 -1038 265 -134 27 -527 88 -650 101
-439 48 -670 67 -1010 80 -299 11 -734 11 -980 -1z m-779 -369 c11 0 17 -4 14
-10 -4 -6 8 -10 29 -10 25 0 36 5 36 14 0 10 10 14 30 14 33 -1 40 -14 13 -22
-10 -2 0 -3 22 0 40 4 39 4 -15 -17 -30 -12 -80 -23 -110 -25 -73 -3 -202 -24
-215 -34 -5 -4 -35 -11 -65 -14 -30 -4 -82 -13 -115 -21 -33 -8 -87 -16 -120
-19 -33 -2 -96 -14 -140 -26 -44 -12 -93 -23 -110 -25 -16 -2 -51 -7 -77 -10
-27 -3 -67 -12 -90 -20 -24 -8 -54 -15 -68 -15 -14 0 -56 -11 -94 -25 -38 -14
-82 -25 -97 -25 -16 0 -46 -6 -66 -14 -21 -8 -56 -17 -78 -21 -22 -3 -53 -10
-70 -16 -97 -30 -244 -79 -265 -88 -14 -5 -52 -17 -85 -27 -33 -9 -71 -23 -85
-31 -14 -7 -56 -24 -95 -38 -116 -40 -142 -50 -156 -62 -8 -6 -25 -14 -39 -18
-96 -29 -425 -217 -541 -310 -152 -121 -180 -139 -209 -130 -54 17 11 152 116
240 32 28 70 60 84 73 30 28 180 122 247 155 26 14 82 42 123 63 100 52 152
74 285 120 28 9 68 25 90 34 22 10 55 21 73 25 18 4 45 13 60 21 15 8 35 14
44 14 9 0 19 4 22 9 3 5 50 19 103 31 54 12 109 26 123 30 23 8 137 36 310 76
36 8 79 19 95 24 17 5 64 12 105 16 41 3 93 12 115 19 22 8 74 17 115 20 41 4
105 13 142 21 37 7 117 16 177 18 61 3 115 7 119 10 5 3 31 7 58 10 27 3 75 8
107 12 40 5 57 3 57 -5 0 -6 7 -11 16 -11 8 0 13 4 10 9 -7 11 14 21 32 15 8
-2 23 -4 33 -4z m-1074 -636 c37 -8 72 -20 78 -25 5 -5 16 -9 24 -9 9 0 26
-12 38 -27 19 -22 23 -38 23 -98 0 -118 -9 -164 -38 -183 -23 -15 -29 -14 -96
9 -59 20 -90 24 -186 24 -141 0 -194 -18 -294 -101 -55 -46 -74 -69 -102 -128
-43 -91 -56 -160 -48 -260 8 -96 37 -181 74 -216 14 -14 32 -34 40 -45 36 -49
141 -109 225 -130 51 -12 188 -6 244 11 64 19 112 45 169 91 45 37 47 36 32
-17 -6 -19 -17 -93 -24 -164 -19 -175 -32 -191 -178 -223 -88 -18 -259 -13
-362 12 -159 38 -344 162 -447 301 -73 99 -129 284 -129 426 0 90 45 278 82
341 15 26 28 55 28 63 0 8 4 13 9 10 5 -3 12 6 15 21 9 34 139 160 215 206 64
40 179 87 211 87 11 0 20 4 20 8 0 29 273 40 377 16z m1296 -53 c24 -23 24
-70 3 -145 -24 -81 -39 -88 -199 -93 -166 -6 -218 -20 -248 -71 -29 -49 -27
-117 7 -239 2 -10 43 -13 156 -14 133 -1 316 -13 265 -17 -14 -2 -16 -6 -7
-21 24 -46 1 -183 -34 -206 -16 -11 -60 -16 -152 -18 -93 -3 -140 -9 -169 -21
-104 -44 -113 -92 -60 -302 2 -7 73 -13 207 -17 198 -6 204 -7 224 -31 19 -21
20 -30 12 -87 -10 -74 -34 -121 -68 -130 -37 -10 -665 -10 -692 0 -44 17 -53
52 -52 205 0 78 1 380 3 672 1 405 4 534 14 542 23 19 64 21 417 17 331 -4
355 -6 373 -24z m843 -8 c19 -13 34 -35 37 -52 8 -37 96 -262 108 -275 5 -6 9
-17 9 -25 0 -18 45 -134 70 -182 11 -20 20 -44 20 -53 0 -9 4 -16 9 -16 4 0
27 -38 51 -85 l43 -85 24 41 c12 22 23 44 23 48 0 3 20 35 45 70 25 36 45 70
45 77 0 11 66 171 116 281 8 17 14 33 14 36 0 3 15 38 34 79 19 40 37 87 40
104 6 25 14 33 45 43 53 16 293 15 313 -1 16 -13 24 -41 33 -113 9 -74 36
-258 70 -475 19 -118 39 -249 44 -290 22 -154 43 -297 53 -360 12 -79 11 -135
-2 -160 -20 -38 -192 -51 -251 -19 -47 25 -62 84 -94 370 -19 178 -29 228 -60
306 -14 34 -25 71 -25 82 0 35 -19 33 -39 -6 -10 -21 -34 -54 -53 -74 -33 -36
-98 -150 -113 -199 -4 -14 -22 -56 -40 -95 -18 -38 -45 -101 -60 -140 -60
-153 -120 -245 -162 -245 -32 0 -71 31 -96 77 -28 53 -142 326 -159 383 -16
55 -82 184 -115 226 -16 22 -38 54 -49 72 -23 40 -31 40 -39 1 -4 -17 -16 -51
-27 -76 -25 -56 -52 -170 -67 -283 -7 -47 -19 -121 -26 -165 -8 -44 -17 -97
-19 -119 -3 -21 -16 -55 -30 -76 -22 -33 -33 -40 -72 -46 -47 -7 -155 0 -185
11 -34 13 -39 68 -18 213 11 75 28 173 39 217 11 44 25 116 31 160 6 44 26
163 45 265 19 102 48 266 65 365 17 99 35 185 41 192 14 17 49 21 183 19 107
-1 123 -3 151 -23z m1747 -9 c15 -11 33 -40 42 -69 9 -27 27 -72 40 -100 13
-27 47 -111 75 -185 29 -74 61 -154 71 -177 11 -23 19 -46 19 -50 0 -11 63
-135 86 -169 11 -16 31 -52 44 -81 22 -47 40 -67 40 -45 0 4 30 60 66 123 36
62 75 137 86 164 10 28 33 79 49 113 16 35 33 78 36 95 4 18 36 97 73 177 37
80 72 159 79 176 16 41 41 45 256 43 147 0 163 -2 158 -17 -4 -9 -8 -11 -10
-5 -4 12 -53 5 -53 -8 0 -4 5 -11 11 -14 7 -5 5 -11 -5 -18 -17 -13 -116 -202
-116 -221 0 -7 -13 -40 -30 -74 -16 -34 -30 -65 -30 -68 0 -4 -28 -68 -61
-143 -157 -349 -189 -422 -224 -501 -63 -144 -128 -284 -143 -307 -55 -86
-235 -96 -300 -17 -26 31 -110 213 -127 274 -4 14 -13 32 -19 40 -7 8 -21 35
-31 60 -10 25 -29 69 -42 98 -13 29 -23 55 -23 58 0 8 -58 141 -81 187 -10 21
-19 42 -19 48 0 6 -6 25 -14 42 -8 18 -28 62 -44 98 -17 37 -47 111 -67 165
-20 55 -51 131 -70 169 -19 39 -40 89 -48 112 l-14 42 31 3 c17 2 88 2 157 2
107 -1 131 -4 152 -20z m1700 -658 c-1 -411 -6 -680 -12 -704 -15 -56 -50 -72
-153 -72 -96 0 -126 12 -150 59 -16 32 -17 88 -13 700 3 366 5 669 5 673 0 6
304 17 321 11 3 -1 4 -301 2 -667z m37 664 c0 -5 -4 -10 -10 -10 -5 0 -10 5
-10 10 0 6 5 10 10 10 6 0 10 -4 10 -10z m-4293 -1156 c-3 -3 -12 -4 -19 -1
-8 3 -5 6 6 6 11 1 17 -2 13 -5z"/>
<path d="M340 3540 l0 -120 101 0 100 0 -3 28 c-3 26 -6 27 -65 30 -54 3 -63
6 -63 22 0 16 9 19 58 22 53 3 57 5 57 28 0 23 -4 25 -58 28 -73 4 -66 22 9
22 53 0 54 0 54 30 l0 30 -95 0 -95 0 0 -120z"/>
<path d="M8024 3636 c-3 -14 -18 -29 -35 -37 -47 -19 -69 -55 -69 -110 0 -40
5 -55 29 -81 27 -31 34 -33 91 -33 57 0 64 2 91 33 24 27 29 41 29 83 0 43 -5
55 -29 80 -16 16 -44 32 -61 36 l-32 6 29 23 28 23 -32 1 c-26 0 -34 -5 -39
-24z m40 -92 c11 -4 16 -19 16 -49 0 -53 -19 -73 -55 -57 -20 9 -25 19 -25 50
0 53 22 72 64 56z"/>
<path d="M570 3536 l0 -116 34 0 34 0 -6 67 c-6 82 10 79 28 -7 12 -57 14 -60
42 -60 16 0 30 6 32 13 2 6 10 35 19 62 l15 50 1 -62 1 -63 35 0 35 0 0 115 0
115 -54 0 -54 0 -7 -48 c-9 -65 -22 -85 -30 -46 -22 96 -16 89 -73 92 l-52 3
0 -115z"/>
<path d="M880 3535 l0 -115 90 0 c77 0 93 3 110 20 26 26 26 74 0 98 -18 17
-19 20 -5 32 20 17 19 43 -3 63 -14 13 -39 17 -105 17 l-87 0 0 -115z m118 48
c-10 -2 -26 -2 -35 0 -10 3 -2 5 17 5 19 0 27 -2 18 -5z m6 -69 c33 -13 11
-44 -30 -44 -8 0 -14 10 -14 25 0 25 13 31 44 19z"/>
<path d="M1161 3621 c-28 -26 -31 -35 -31 -90 0 -53 3 -63 27 -85 62 -58 173
-37 202 37 18 48 7 103 -29 139 -24 24 -36 28 -83 28 -47 0 -60 -4 -86 -29z
m125 -60 c27 -53 -26 -112 -67 -75 -22 19 -26 73 -7 92 20 20 61 10 74 -17z"/>
<path d="M1380 3620 c0 -28 3 -30 35 -30 l35 0 0 -91 0 -90 38 3 37 3 3 88 3
87 34 0 c32 0 35 2 35 30 l0 30 -110 0 -110 0 0 -30z"/>
<path d="M1637 3538 c-4 -62 -3 -116 2 -121 4 -4 50 -6 102 -5 93 3 94 3 94
28 0 24 -3 25 -62 28 -54 3 -63 6 -63 22 0 16 9 19 58 22 54 3 57 4 60 31 3
27 2 27 -52 27 -31 0 -56 5 -56 10 0 6 25 10 55 10 30 0 56 5 56 10 6 46 9 45
-92 48 l-96 3 -6 -113z"/>
<path d="M1870 3531 l0 -121 95 0 95 0 0 30 c0 30 -1 30 -55 30 l-54 0 -3 88
-3 87 -37 3 -38 3 0 -120z"/>
<path d="M2087 3643 c-2 -5 -4 -59 -6 -120 l-2 -113 96 0 95 0 0 30 c0 30 -1
30 -55 30 l-55 0 0 90 0 90 -34 0 c-19 0 -37 -3 -39 -7z"/>
<path d="M2350 3583 c-12 -32 -32 -84 -45 -115 l-24 -58 45 0 c32 0 44 4 44
15 0 11 12 15 45 15 33 0 45 -4 45 -15 0 -11 11 -15 40 -15 22 0 40 3 40 7 0
3 -11 34 -23 67 -13 34 -32 82 -41 109 -17 46 -18 47 -61 47 l-43 0 -22 -57z
m80 -60 c0 -7 -7 -13 -15 -13 -16 0 -19 9 -9 35 5 13 8 14 15 3 5 -7 9 -19 9
-25z"/>
<path d="M2560 3525 l0 -115 84 0 c82 0 85 1 111 32 24 29 27 38 23 92 -4 49
-9 63 -32 83 -24 20 -38 23 -107 23 l-79 0 0 -115z m138 7 c4 -47 -10 -72 -39
-72 -17 0 -19 8 -19 61 0 60 0 60 28 57 24 -3 27 -7 30 -46z"/>
<path d="M2855 3620 c-36 -23 -43 -41 -44 -102 -2 -86 70 -136 158 -109 49 14
71 40 78 89 8 59 -12 107 -51 126 -46 22 -105 20 -141 -4z m103 -52 c10 -13
15 -39 13 -71 0 -9 -12 -23 -26 -29 -21 -9 -28 -8 -45 7 -37 34 -17 105 29
105 10 0 23 -6 29 -12z"/>
<path d="M3090 3521 l0 -121 35 0 c35 0 35 0 35 45 0 32 4 45 14 45 8 0 24
-20 36 -45 l22 -45 80 0 c71 0 80 2 85 20 4 16 14 20 43 20 30 0 40 -5 45 -20
5 -15 15 -20 41 -20 44 0 43 6 -3 136 l-38 104 -36 0 c-20 0 -41 -6 -47 -13
-6 -7 -25 -53 -43 -102 -17 -50 -35 -94 -39 -98 -4 -5 -19 11 -33 35 -25 42
-25 43 -6 67 22 28 24 60 5 86 -11 15 -30 20 -105 23 l-91 4 0 -121z m130 50
c0 -12 -37 -24 -50 -16 -20 12 -10 25 20 25 17 0 30 -4 30 -9z m237 -67 c-3
-3 -12 -4 -20 -2 -11 2 -12 9 -5 28 l10 25 11 -23 c5 -12 8 -25 4 -28z"/>
<path d="M3708 3634 c-5 -4 -8 -58 -8 -121 l0 -113 81 0 c76 0 82 2 110 29 25
26 29 37 29 85 0 47 -4 61 -29 88 -27 30 -34 33 -102 36 -41 2 -77 0 -81 -4z
m136 -96 c14 -39 -6 -78 -39 -78 -24 0 -25 3 -25 56 0 54 0 55 27 52 20 -2 30
-11 37 -30z"/>
<path d="M3957 3623 c-4 -3 -7 -55 -7 -115 l0 -108 106 0 c93 0 105 2 100 16
-3 9 -6 22 -6 30 0 10 -15 14 -60 14 -53 0 -60 2 -60 20 0 18 7 20 55 20 48 0
55 2 55 20 0 11 0 23 0 28 0 4 -26 10 -57 13 -58 6 -58 6 -11 7 63 3 78 10 78
38 0 24 -2 24 -93 24 -52 0 -97 -3 -100 -7z"/>
<path d="M4300 3515 l0 -115 94 0 c74 0 96 3 107 16 19 23 16 94 -5 106 -15 8
-15 11 -1 24 20 21 19 47 -3 67 -14 13 -39 17 -105 17 l-87 0 0 -115z m123 48
c-7 -2 -21 -2 -30 0 -10 3 -4 5 12 5 17 0 24 -2 18 -5z m16 -78 c11 -11 -12
-35 -34 -35 -20 0 -25 5 -25 26 0 24 3 25 27 19 16 -4 30 -8 32 -10z"/>
<path d="M4550 3510 l0 -120 100 0 100 0 0 30 0 30 -60 0 c-57 0 -60 1 -60 25
0 24 3 25 55 25 52 0 55 1 55 25 0 23 -3 25 -49 25 -28 0 -53 5 -56 10 -4 6
17 10 54 10 l61 0 0 30 0 30 -100 0 -100 0 0 -120z"/>
<path d="M4798 3518 c-3 -62 -1 -117 3 -122 4 -4 46 -7 94 -5 72 3 89 7 101
23 20 28 18 92 -3 106 -13 8 -14 13 -5 16 6 3 12 21 12 40 0 44 -24 54 -125
54 l-73 0 -4 -112z m127 42 c-3 -5 -15 -10 -25 -10 -10 0 -22 5 -25 10 -4 6 7
10 25 10 18 0 29 -4 25 -10z m14 -75 c2 -2 1 -11 -2 -20 -9 -23 -67 -20 -67 3
0 10 3 22 7 26 7 6 53 0 62 -9z"/>
<path d="M5057 3624 c-4 -4 -7 -59 -7 -121 l0 -114 38 3 37 3 0 115 0 115 -30
3 c-17 2 -34 0 -38 -4z"/>
<path d="M5177 3623 c-4 -3 -7 -57 -7 -120 l0 -113 73 0 c39 0 83 6 97 13 34
17 54 75 46 132 -11 72 -49 95 -156 95 -25 0 -50 -3 -53 -7z m114 -63 c13 -7
19 -21 19 -45 0 -49 -9 -65 -36 -65 -23 0 -24 3 -24 60 0 62 5 68 41 50z"/>
<path d="M5470 3608 c-19 -45 -80 -208 -80 -213 0 -3 18 -5 40 -5 29 0 40 4
40 15 0 11 12 15 45 15 33 0 45 -4 45 -15 0 -11 11 -15 40 -15 22 0 40 3 40 8
0 18 -75 218 -84 224 -6 4 -26 8 -44 8 -24 0 -35 -6 -42 -22z m60 -99 c0 -20
-5 -29 -16 -29 -12 0 -15 6 -10 23 3 12 6 28 6 35 0 7 5 10 10 7 6 -3 10 -19
10 -36z"/>
<path d="M5681 3599 c-18 -17 -22 -28 -17 -52 7 -34 18 -44 56 -53 70 -15 95
-44 40 -44 -16 0 -30 5 -30 11 0 6 -16 9 -37 7 -32 -2 -37 -6 -35 -23 6 -35
42 -55 102 -55 63 0 94 17 104 56 10 39 -16 73 -64 80 -22 4 -48 13 -57 21
-16 13 -14 14 22 8 69 -12 89 -11 93 5 1 9 -7 26 -18 38 -29 31 -126 32 -159
1z"/>
<path d="M6010 3505 l0 -115 35 0 35 0 0 58 0 57 25 -30 c13 -16 29 -42 36
-57 10 -25 17 -28 55 -28 l44 0 0 115 0 115 -35 0 -35 0 0 -55 c0 -30 -4 -55
-8 -55 -4 0 -16 15 -26 33 -33 57 -57 77 -93 77 l-33 0 0 -115z"/>
<path d="M6322 3600 c-76 -46 -68 -166 14 -205 111 -52 218 45 174 159 -13 35
-67 66 -115 66 -22 0 -54 -9 -73 -20z m106 -52 c20 -20 15 -86 -7 -98 -11 -5
-24 -10 -30 -10 -19 0 -41 32 -41 60 0 48 48 78 78 48z"/>
<path d="M6734 3612 c-6 -4 -22 -38 -36 -77 -15 -38 -33 -86 -42 -106 -18 -43
-14 -49 30 -49 24 0 34 5 39 20 5 15 15 20 40 20 24 0 38 -6 45 -20 13 -24 80
-29 80 -6 0 7 -16 56 -35 107 -19 52 -35 100 -35 107 0 13 -67 17 -86 4z m46
-91 c0 -5 3 -16 6 -25 4 -12 0 -16 -16 -16 -16 0 -20 4 -16 16 3 9 6 20 6 25
0 5 5 9 10 9 6 0 10 -4 10 -9z"/>
<path d="M6920 3500 l0 -120 90 0 90 0 0 30 c0 30 -1 30 -55 30 l-55 0 0 90 0
90 -35 0 -35 0 0 -120z"/>
<path d="M7194 3606 c-46 -20 -64 -52 -64 -113 0 -64 27 -100 85 -113 51 -12
122 19 131 56 8 30 6 32 -34 40 -25 5 -32 3 -32 -10 0 -20 -46 -32 -65 -16
-18 15 -20 71 -3 88 15 15 54 16 63 2 3 -5 22 -10 41 -10 31 0 35 3 32 21 -7
49 -97 80 -154 55z"/>
<path d="M7406 3579 c-21 -25 -26 -41 -26 -86 0 -47 4 -58 30 -85 29 -29 34
-30 96 -26 82 5 105 25 112 97 3 39 0 57 -17 84 -24 39 -43 47 -118 47 -45 0
-54 -4 -77 -31z m122 -38 c9 -5 12 -24 10 -52 -3 -43 -4 -44 -38 -44 -29 0
-36 5 -44 27 -19 54 27 98 72 69z"/>
<path d="M7662 3493 l3 -118 30 0 c28 0 30 3 35 45 4 35 9 45 23 44 9 -1 26
-2 36 -3 16 -1 20 -10 23 -43 3 -39 5 -42 33 -42 l30 0 3 117 3 117 -36 0
c-34 0 -35 -1 -35 -40 l0 -40 -40 0 -40 0 0 40 c0 39 -1 40 -35 40 l-36 0 3
-117z"/>
<path d="M8207 3498 c-3 -62 -2 -117 2 -121 4 -4 48 -7 97 -5 89 3 89 3 92 31
3 27 3 27 -57 27 l-61 0 0 90 0 90 -34 0 -33 0 -6 -112z"/>
<path d="M8429 3608 c0 -2 -1 -55 -2 -118 l-2 -115 38 -3 37 -3 0 120 0 121
-35 0 c-19 0 -35 -1 -36 -2z"/>
<path d="M8614 3596 c-46 -20 -64 -52 -64 -114 0 -46 4 -58 29 -83 25 -25 37
-29 84 -29 45 0 59 4 81 26 31 32 33 50 7 64 -30 15 -48 12 -54 -10 -6 -23
-45 -28 -65 -8 -13 13 -16 56 -6 82 7 19 74 23 74 5 0 -11 57 -6 68 6 12 12
-32 55 -65 64 -47 13 -51 13 -89 -3z"/>
<path d="M8874 3598 c-14 -18 -95 -220 -90 -225 2 -2 18 -6 36 -8 25 -3 33 0
37 15 4 16 14 20 46 20 24 0 44 -6 51 -15 6 -8 26 -18 44 -21 27 -6 32 -4 32
13 0 15 -65 207 -74 220 0 0 -17 4 -37 8 -24 4 -38 2 -45 -7z m46 -92 c0 -8 3
-21 6 -30 4 -12 0 -16 -16 -16 -16 0 -20 4 -16 16 3 9 6 22 6 30 0 8 5 14 10
14 6 0 10 -6 10 -14z"/>
<path d="M9075 3575 c-14 -13 -25 -31 -25 -38 0 -28 36 -58 84 -70 57 -14 74
-37 27 -37 -16 0 -33 5 -36 10 -3 6 -22 10 -41 10 -26 0 -34 -4 -34 -18 0 -67
130 -91 191 -36 24 22 24 66 1 87 -10 9 -41 21 -70 27 -29 7 -52 16 -52 22 0
10 19 8 98 -8 35 -7 39 0 21 40 -13 27 -35 36 -97 36 -32 0 -49 -6 -67 -25z"/>
</g>
</svg>
